<svg xmlns="http://www.w3.org/2000/svg" width="400" height="107"><title>logo</title><desc>Created with Sketch.</desc><g fill="none"><g><path fill="#fff" d="M269.68 97.73c-.12-.1-.23-.3-.23-.5 0-.38.3-.68.66-.68.2 0 .3.06.44.16.38.4.75.62 1.27.62.78 0 1.28-.5 1.28-1.55v-4.52c0-.38.32-.7.7-.7.38 0 .7.32.7.7v4.56c0 .94-.3 1.64-.75 2.1-.46.46-1.12.7-1.9.7-.96 0-1.65-.37-2.15-.87"/><path fill="#fff" d="M278.4 94.58v-.03c0-2.2 1.7-4.07 4.1-4.07 2.42 0 4.1 1.84 4.1 4.05v.02c0 2.22-1.7 4.07-4.12 4.07-2.4 0-4.1-1.83-4.1-4.04zm6.76 0v-.03c0-1.53-1.12-2.8-2.68-2.8s-2.64 1.25-2.64 2.78v.02c0 1.53 1.1 2.8 2.67 2.8 1.57 0 2.66-1.25 2.66-2.77z"/><path fill="#fff" d="M292.37 95.43l-2.7-3.72c-.1-.13-.16-.28-.16-.48 0-.37.3-.66.7-.66.3 0 .5.17.68.42l2.2 3.16 2.2-3.17c.18-.25.38-.42.67-.42.4 0 .67.3.67.67 0 .2-.1.37-.2.5l-2.67 3.68v2.46c0 .38-.3.68-.7.68-.38 0-.68-.3-.68-.68v-2.43"/><path fill="#fff" d="M306.06 91.32c0-.4.3-.7.7-.7H309c2.46 0 4.17 1.7 4.17 3.9v.03c0 2.22-1.7 3.94-4.18 3.94h-2.24c-.4 0-.7-.32-.7-.7V91.3zm2.93 5.9c1.64 0 2.72-1.1 2.72-2.64v-.03c0-1.54-1.08-2.67-2.73-2.67h-1.56v5.35H309z"/><path fill="#fff" d="M317.2 97.8V91.3c0-.4.3-.7.7-.7h4.57c.34 0 .62.28.62.62 0 .35-.3.62-.63.62h-3.88v2.04h3.37c.33 0 .6.28.6.63 0 .34-.27.6-.6.6h-3.38v2.12h3.93c.33 0 .6.28.6.62 0 .35-.27.62-.6.62h-4.63c-.4 0-.7-.32-.7-.7"/><path fill="#fff" d="M327.1 91.25c0-.38.3-.7.7-.7.37 0 .67.32.67.7v5.98h3.56c.35 0 .63.28.63.63s-.28.63-.63.63h-4.24c-.4 0-.7-.32-.7-.7v-6.55"/><path fill="#fff" d="M336.48 91.25c0-.38.3-.7.7-.7.38 0 .68.32.68.7v6.6c0 .4-.3.7-.68.7-.4 0-.7-.3-.7-.7v-6.6"/><path fill="#fff" d="M344.6 98.04l-2.75-6.48c-.05-.1-.08-.2-.08-.32 0-.37.3-.68.7-.68.36 0 .6.2.7.5l2.27 5.67 2.3-5.72c.1-.22.34-.44.66-.44.4 0 .7.3.7.66 0 .1-.04.22-.08.3l-2.76 6.52c-.15.35-.4.56-.8.56h-.08c-.38 0-.63-.2-.78-.56"/><path fill="#fff" d="M352.9 97.8V91.3c0-.4.32-.7.7-.7h4.58c.33 0 .62.28.62.62 0 .35-.3.62-.62.62h-3.9v2.04h3.4c.33 0 .6.28.6.63 0 .34-.27.6-.6.6h-3.4v2.12h3.95c.34 0 .62.28.62.62 0 .35-.28.62-.62.62h-4.62c-.38 0-.7-.32-.7-.7"/><path fill="#fff" d="M362.8 91.32c0-.4.3-.7.7-.7h2.8c1 0 1.76.3 2.27.8.4.4.65 1 .65 1.68v.03c0 1.25-.73 2.02-1.8 2.34l1.52 1.9c.13.17.22.32.22.53 0 .38-.32.64-.66.64-.3 0-.52-.14-.67-.36l-1.9-2.44h-1.75v2.12c0 .38-.3.68-.7.68-.38 0-.68-.3-.68-.68v-6.54zm3.4 3.2c1 0 1.6-.52 1.6-1.32v-.02c0-.84-.6-1.3-1.6-1.3h-2.02v2.64h2.02z"/><path fill="#fff" d="M373.28 97.8V91.3c0-.4.3-.7.7-.7h4.56c.34 0 .62.28.62.62 0 .35-.28.62-.62.62h-3.88v2.04h3.38c.33 0 .6.28.6.63 0 .34-.27.6-.6.6h-3.38v2.12h3.94c.33 0 .62.28.62.62 0 .35-.3.62-.62.62h-4.63c-.4 0-.7-.32-.7-.7"/><path fill="#fff" d="M383.16 91.32c0-.4.3-.7.7-.7h2.23c2.46 0 4.17 1.7 4.17 3.9v.03c0 2.22-1.7 3.94-4.18 3.94h-2.24c-.4 0-.7-.32-.7-.7V91.3zm2.93 5.9c1.64 0 2.72-1.1 2.72-2.64v-.03c0-1.54-1.08-2.67-2.73-2.67h-1.56v5.35h1.55z"/><path fill="#fff" d="M394.2 91.07c-.03-.27.13-.5.38-.5h.8c.27 0 .44.23.42.5l-.4 4.58c-.02.25-.2.4-.4.4-.24 0-.4-.15-.42-.4l-.4-4.58zm.8 5.8c.45 0 .8.35.8.78v.12c0 .44-.35.77-.8.77-.46 0-.8-.33-.8-.77v-.12c0-.43.34-.77.8-.77z"/><path fill="#fff" d="M139.52 44.96h-3.9c-1.42 0-2.56 1.14-2.56 2.55v12.33h-13.93V47.5c0-1.4-1.14-2.54-2.54-2.54h-3.93c-1.4 0-2.55 1.14-2.55 2.55v28.44c-.03 1.58-.72 3-1.8 4-.44.4-.45 1.05 0 1.43.96.83 2.22 1.34 3.6 1.34.22 0 .44 0 .65-.03h4.02c1.4 0 2.53-1.13 2.53-2.54V67.8h13.93v12.33c0 1.4 1.14 2.55 2.55 2.55h3.92c1.4 0 2.55-1.14 2.55-2.55V47.5c0-1.4-1.14-2.54-2.55-2.54"/><path fill="#73B946" d="M289.64 60.77h-9.5v-7.73h11.37c.12 0 .23-.02.33-.03 3.25-.1 5.85-2.77 5.85-6.05 0-1.96-.94-3.7-2.38-4.8-1 1.6-2.73 2.67-4.7 2.8h-16.93c-1.4 0-2.55 1.15-2.55 2.56v29.24c-.2 1.24-.83 2.35-1.72 3.16-.43.4-.44 1.06 0 1.44.97.83 2.23 1.34 3.6 1.34.15 0 .3 0 .44-.02l.23.02h3.9c1.42 0 2.56-1.14 2.56-2.55V68.85h9.5c1.4 0 2.56-1.14 2.56-2.55v-2.98c0-1.4-1.16-2.55-2.56-2.55"/><path fill="#fff" d="M161.14 55.03c-3.2 0-5.76.35-7.77.95l-.16.03c-1.82.32-3.6-.34-4.8-1.62-1.04 1.2-1.57 2.85-1.24 4.55.48 2.5 2.64 4.26 5.1 4.32.37.02.74 0 1.12-.1.27-.03.53-.1.78-.2.1-.04.2-.08.28-.12h.05c1.06-.4 2.46-.77 3.95-.77 4.9 0 4.2 3.87 4.2 3.87s-7-.47-11.34 1.87c-4.32 2.34-4.67 5.4-4.67 7.73 0 2.35 1.4 5.86 5.5 7.15 4.1 1.3 6.55-.24 8.66-1.18 2.1-.93 2.56-1.87 2.56-1.87s-.1 3.05 2.34 3.05h3.98c1.3 0 1.87-.6 1.87-3.52V63.82c0-4.45-3.85-8.8-10.4-8.8zm.12 19.57c-1.7 1.7-5.62 2.7-5.62 0s3.98-3.52 3.98-3.52h2.93s.4 1.82-1.3 3.52z"/><path fill="#fff" d="M193.2 54.8c-4.57 0-6.43 1.85-7.37 3.07v-.5c0-1.4-1.15-2.56-2.55-2.56h-3.9c-1.43 0-2.56 1.16-2.56 2.56V86.7c-.23 1.2-.83 2.27-1.7 3.06-.43.4-.44 1.05 0 1.43.97.83 2.23 1.33 3.6 1.33.12 0 .23 0 .34 0 .1 0 .2 0 .3 0h3.92c1.4 0 2.55-1.14 2.55-2.54V81.1c1.2 1.1 3.27 2.05 6.9 2.05 8.66 0 12.64-6.35 12.64-15.37s-6.08-13-12.17-13zm-2.46 20.64c-2.15 0-4-1.42-4.9-3.5v-5.67c.9-2.08 2.75-3.5 4.9-3.5 3.03 0 5.5 2.83 5.5 6.33s-2.47 6.34-5.5 6.34z"/><path fill="#fff" d="M225.84 54.8c-4.56 0-6.43 1.85-7.36 3.07v-.5c0-1.4-1.15-2.56-2.56-2.56h-3.9c-1.42 0-2.56 1.16-2.56 2.56v28.68c-.1 1.48-.76 2.8-1.8 3.75-.42.38-.43 1.04 0 1.42.98.84 2.24 1.35 3.62 1.35.2 0 .4-.02.58-.04h4.06c1.4 0 2.56-1.14 2.56-2.54V81.1c1.2 1.1 3.26 2.05 6.9 2.05 8.65 0 12.63-6.35 12.63-15.37s-6.07-13-12.16-13zm-2.45 20.64c-2.16 0-4.03-1.42-4.92-3.5v-5.67c.9-2.08 2.76-3.5 4.9-3.5 3.04 0 5.5 2.83 5.5 6.33s-2.46 6.34-5.5 6.34z"/><path fill="#fff" d="M265.74 55.62h-5.85c-1.76 0-2.23 1.4-2.82 3.28-.58 1.87-3.63 12.65-3.63 12.65s-1.75-6.8-3.04-10.43c-1.27-3.63-1.86-5.5-3.26-5.5h-6.32c-1.52 0-1.76 2.22-1.3 3.04.48.82 3.17 7.5 4.22 9.73 1.06 2.2 6.1 12.76 5.85 13.93-.24 1.17-2 3.86-3.17 3.86s-2.92-.36-3.86-.24c-.93.12-2 2.46-2 2.46-.45 1.3-2.56 5.74 5.86 5.15 8.43-.58 9.95-7.14 11.35-11.12 1.4-4 8.3-21.56 8.78-23.2.47-1.64.47-3.63-.82-3.63"/><path fill="#73B946" d="M313.13 55.62c-1.94 0-5.14 1.4-6.8 4.24V58.3c0-1.4-1.13-2.54-2.54-2.54h-3.92c-1.4 0-2.55 1.14-2.55 2.55v18.44c-.2 1.24-.83 2.35-1.72 3.16-.42.4-.43 1.06 0 1.44.98.83 2.24 1.34 3.62 1.34.14 0 .28 0 .43-.02l.23.02h3.9c1.42 0 2.56-1.14 2.56-2.55V72.6s.6-7.8 4.56-7.8c3.98 0 4.57-.5 4.57-4.03 0-3.5.35-5.15-2.34-5.15"/><path fill="#73B946" d="M339.57 57.73c-4.56-3.17-8.42-2.82-8.42-2.82h-3.5c-2.35 0-10.3 3.64-10.3 12.2v3.5c0 1.42.46 9.26 10.3 12.08 9.8 2.8 14.85-2.7 15.32-3.16.47-.47.47-5.63-4.2-5.63 0 0-2.94 1.98-6.57 1.98-3.63 0-5.6-4.8-5.6-4.8h14.26c1.87 0 2.92-1.4 2.92-2.23 0-.8.36-7.97-4.2-11.12zm-12.64 7.6s.83-3.85 3.98-3.85c3.18 0 4 3.86 4 3.86h-7.97z"/><path fill="#73B946" d="M360.4 65.93c-3.75-.82-4.92-1.4-4.92-2.52 0-1.1 2.34-2.4 5.97-.75 3.63 1.64 4.8-1.18 4.8-1.18s.93-1.17.93-2.7c0-1.5-2.7-3.87-8.9-3.87s-11.57 2.36-11.57 8.5c0 6.16 5.27 8.74 8.78 8.74 3.5 0 5.97 3.98 2.1 3.98-3.85 0-4.55-1.06-6.54-1.88-2-.82-5.4 2.82-4.33 5.4 1.06 2.57 6.83 3.84 10.15 3.84 3.3 0 7.3-.92 9.28-4.08 2-3.16 1.87-6.1 1.05-8.32-.82-2.23-3.04-4.33-6.78-5.15"/><path fill="#73B946" d="M391.87 54.9c-4.68 0-6.67-.92-10.65 4.1V47.5c0-1.4-1.14-2.54-2.54-2.54h-3.92c-1.4 0-2.55 1.14-2.55 2.55v29.65c-.25 1.07-.83 2.03-1.63 2.75-.43.4-.43 1.06 0 1.44.97.83 2.23 1.34 3.6 1.34.14 0 .26 0 .4-.02l.2.02h3.9c1.4 0 2.55-1.14 2.55-2.55V69.1c1.1-2.16 3.07-5.7 5.74-5.7 3.2 0 3.52 3.05 3.47 4.64h-.08v12.1c0 1.4 1.14 2.54 2.55 2.54h3.9c1.42 0 2.56-1.14 2.56-2.55V63.4c0-2.28-2.8-8.5-7.5-8.5"/><path fill="#E0BF93" d="M73.8 86.9l.18-.2c1.35-1.27 2.22-3 2.4-4.96h.05s0-.15 0-.35c0-.14.04-.25.04-.4 0-1.1-.26-2.15-.68-3.1-.82-2.36-2.64-4.86-6.75-4.67-.1 0-.2-.02-.3-.02h-.08c-.23 0-.46.06-.7.08-.58.08-1.22.25-1.88.45l-.13.03c-7.66 2.26-11.37 3.66-18.9 3.54-7.53.12-11.24-1.28-18.9-3.54l-.12-.03c-.67-.2-1.3-.37-1.9-.45-.23-.02-.45-.07-.7-.07h-.05c-.12 0-.22.02-.3.03-4.12-.2-5.95 2.3-6.76 4.66-.42.95-.68 2-.68 3.1 0 .15.04.26.04.4 0 .2 0 .33 0 .33h.04c.2 1.96 1.06 3.7 2.4 4.97l.2.2c3.37 2.47 4.7 5.37 4.7 5.37.6.93.96 2.03.96 3.22 0 .32-.03.65-.08.97 1.76 1.43 8.7 6.38 20.34 6.35.27 0 .54-.02.8-.03.28 0 .54.02.8.02 11.66.03 18.6-4.92 20.36-6.35-.06-.32-.1-.65-.1-.98 0-1.2.37-2.3.98-3.23 0 0 1.32-2.9 4.7-5.38"/><path fill="#E4986A" d="M25.92 96.47l.03.02-.02-.18v.15"/><path fill="#E4986A" d="M17.7 81.73h.04l.02.13c.1-.78.27-1.54.58-2.23.8-2.35 2.64-4.85 6.75-4.67.08 0 .18 0 .3 0l.06-.02c.24 0 .46.05.7.07.58.1 1.22.26 1.9.46l.1.03c7.67 2.25 11.38 3.66 18.9 3.54 7.54.12 11.25-1.3 18.9-3.55l.13-.04c.65-.2 1.3-.37 1.88-.45.23 0 .46-.06.7-.06h.06c.1 0 .2.02.3.02 4.12-.18 5.94 2.32 6.75 4.67.3.7.47 1.44.57 2.23l.02-.12h.03s0-.15 0-.35c0-.14.04-.25.04-.4 0-1.1-.26-2.15-.68-3.1-.82-2.36-2.64-4.86-6.75-4.67-.1 0-.2-.02-.3-.02h-.08c-.23 0-.46.06-.7.08-.58.08-1.22.25-1.88.45l-.13.03c-7.66 2.26-11.37 3.66-18.9 3.54-7.53.12-11.24-1.28-18.9-3.54l-.12-.03c-.67-.2-1.3-.37-1.9-.45-.23-.02-.45-.07-.7-.07h-.05c-.12 0-.22.02-.3.03-4.12-.2-5.95 2.3-6.76 4.66-.42.95-.68 2-.68 3.1 0 .15.04.26.04.4 0 .2 0 .33 0 .33"/><path fill="#E4986A" d="M68.2 96.5l.02-.03-.02-.15v.17"/><path fill="#E4986A" d="M33.2 92.68c0 3.62-2.92 6.56-6.55 6.56-3.62 0-6.55-2.94-6.55-6.56 0-3.63 2.93-6.57 6.55-6.57 3.63 0 6.56 2.95 6.56 6.58"/><path fill="#E4986A" d="M74.04 92.68c0 3.62-2.94 6.56-6.56 6.56-3.63 0-6.56-2.94-6.56-6.56 0-3.63 2.93-6.57 6.56-6.57 3.62 0 6.56 2.95 6.56 6.58"/><path fill="#E05531" d="M47.07 22.54c-23.8 0-43.15 19.38-43.15 43.2 0 10.77 3.97 20.63 10.5 28.2 2.44 4.4 7.7 5.5 8.06 2.05v-.06c.04-.15.06-.3.06-.45 0-.24-.05-.47-.1-.68-.55-2.9-3.97-4.98-3.97-4.98-2.6-2.07-4.27-5.25-4.27-8.83 0-4.88 3.13-9.04 7.5-10.6 0 0 4.2-1.14 10.3 1.46.94.4 1.7.57 2.3.62C38 73.42 42.3 74 47.08 74c4.78 0 9.06-.58 12.75-1.52.63-.05 1.38-.23 2.3-.62 6.1-2.6 10.33-1.46 10.33-1.46 4.35 1.56 7.48 5.72 7.48 10.6 0 3.6-1.67 6.77-4.27 8.84 0 0-3.42 2.07-3.96 4.98-.06.2-.1.44-.1.67 0 .14 0 .3.05.44V96c.37 3.43 5.62 2.33 8.05-2.05 6.54-7.58 10.5-17.44 10.5-28.2 0-23.83-19.35-43.2-43.13-43.2"/><path fill="#DC3E35" d="M18.47 89.84c-2.34-1.86-3.9-4.63-4.2-7.76-4.33-6.72-6.88-14.7-6.88-23.28 0-5.55 1.05-10.85 2.96-15.73-4.08 6.6-6.44 14.36-6.44 22.67 0 10.77 3.97 20.63 10.5 28.2 2.44 4.4 7.7 5.5 8.06 2.05v-.06c.04-.15.06-.3.06-.45 0-.24-.05-.47-.1-.68-.55-2.9-3.97-4.98-3.97-4.98"/><path fill="#D9222A" d="M79.93 81c0 .43-.02.84-.07 1.24 2.17-2.05 3.54-4.94 3.54-8.17 0-4.9-3.13-9.05-7.5-10.6 0 0-4.22-1.15-10.3 1.45-.93.4-1.7.57-2.3.62-3.7.94-8 1.52-12.77 1.52-4.78 0-9.07-.58-12.75-1.52-.63-.05-1.38-.22-2.3-.62-6.1-2.6-10.33-1.46-10.33-1.46-3.98 1.43-6.9 5.04-7.4 9.38 1.14-1.06 2.46-1.9 3.94-2.44 0 0 4.2-1.14 10.3 1.46.94.4 1.7.57 2.3.62C38 73.42 42.3 74 47.08 74c4.78 0 9.06-.58 12.75-1.52.63-.05 1.38-.23 2.3-.62 6.1-2.6 10.33-1.46 10.33-1.46 4.35 1.56 7.48 5.72 7.48 10.6"/><path fill="#DC3E35" d="M83.17 87c-2.17 3.9-6.57 5.2-7.76 3-.77.53-3.24 2.37-3.7 4.82-.06.2-.1.44-.1.67 0 .14 0 .3.05.44V96c.37 3.43 5.62 2.33 8.05-2.05 3.2-3.7 5.76-7.94 7.56-12.56-1.22 1.97-2.58 3.85-4.1 5.6"/><path fill="#F1AA49" d="M16.16 95.68c-6.54-7.57-10.5-17.43-10.5-28.2 0-23.83 19.35-43.2 43.14-43.2 11.45 0 21.88 4.5 29.6 11.82-7.87-8.34-19-13.56-31.33-13.56-23.8 0-43.15 19.38-43.15 43.2 0 10.77 3.97 20.63 10.5 28.2.66 1.18 1.53 2.12 2.44 2.8-.25-.33-.5-.68-.7-1.06"/><path fill="#F1AA49" d="M73.38 97.72v-.06c-.03-.14-.05-.3-.05-.44 0-.24.04-.47.1-.68.54-2.9 3.97-4.98 3.97-4.98 2.6-2.06 4.27-5.25 4.27-8.82 0-3.57-1.68-6.73-4.27-8.8 1.57 1.93 2.53 4.38 2.53 7.06 0 3.6-1.67 6.77-4.27 8.84 0 0-3.42 2.07-3.96 4.98-.06.2-.1.44-.1.67 0 .14 0 .3.05.44V96c.13 1.17.83 1.8 1.8 1.96-.03-.08-.06-.15-.07-.24"/><path fill="#F1AA49" d="M20.4 39.27c-.58.5-11.94 11.63-7.55 13.25 4.38 1.62 11.68-8.87 11.44-11.06-.26-2.2-2.24-3.7-3.9-2.2"/><path fill="#F1AA49" d="M30.13 30.25C26 32.93 26 36.6 26 36.6s-.04 1.73 4.05.47c2-.68 4.2-1.9 5.68-3.65 3.65-4.4-1.47-5.85-5.6-3.17"/><path fill="#BAB5B0" d="M57.37 21.63c-.98 0-1.94.1-2.86.33 0 0 .1.5.34 1.3 7.44 1.35 14.2 4.62 19.8 9.28 2.96-.07 4.7-.44 4.7-.44S67.15 21.63 57.36 21.63"/><path fill="#AB4E34" d="M55.46 24.8c1.17 2.46 3.7 5.8 9.04 6.85 3.54.7 6.65.9 9.08.9.2 0 .38 0 .57 0-5.42-3.95-11.8-6.68-18.7-7.76m-.6-1.55c7.42 1.36 14.2 4.64 19.77 9.3 0 0 .02 0 .02 0-5.6-4.67-12.36-7.94-19.8-9.3"/><path fill="#B38346" d="M54.84 23.25c.15.44.35.97.62 1.54 6.9 1.07 13.27 3.8 18.7 7.75.15 0 .3 0 .46 0-5.58-4.66-12.35-7.94-19.78-9.3"/><path fill="#221F1F" d="M47.07 19.07C21.37 19.07.47 40 .47 65.74c0 12.03 4.56 23.02 12.06 31.3 0 0 6.57 5.18 9.65 3.96.8-.3 1.5-.77 2.07-1.35 2.85 2.17 10.15 6.64 21.7 6.64h.34c.25 0 .5-.03.77-.04.26 0 .5.03.78.03h.33c11.55 0 18.85-4.48 21.7-6.65.6.58 1.3 1.05 2.07 1.35 0 0 4.16 1.13 8.32-2.55 8.28-8.43 13.4-19.98 13.4-32.7 0-25.74-20.9-46.68-46.6-46.68zm22.03 73.2c-.6.93-.97 2.03-.97 3.22 0 .32.03.65.1.97-1.78 1.43-8.7 6.38-20.36 6.35-.27 0-.53-.02-.8-.03-.27 0-.54.02-.8.02-11.66.03-18.6-4.92-20.35-6.35.05-.32.08-.65.08-.98 0-1.2-.36-2.3-.96-3.23 0 0-1.33-2.9-4.7-5.38l-.2-.2c-1.34-1.27-2.2-3-2.4-4.96h-.04s0-.15 0-.35c0-.14-.04-.25-.04-.4 0-1.1.26-2.15.68-3.1.8-2.36 2.64-4.86 6.75-4.67.08 0 .18-.02.3-.02h.06c.24 0 .46.06.7.08.58.08 1.22.25 1.9.45l.1.03c7.67 2.26 11.38 3.66 18.9 3.54 7.54.12 11.25-1.28 18.9-3.54l.13-.03c.65-.2 1.3-.37 1.88-.45.23-.02.46-.07.7-.07h.06c.1 0 .2.02.3.03 4.12-.2 5.94 2.3 6.75 4.66.4.95.67 2 .67 3.1 0 .15-.04.26-.04.4 0 .2 0 .33 0 .33h-.04c-.2 1.96-1.07 3.7-2.42 4.97l-.2.2c-3.36 2.47-4.68 5.37-4.68 5.37zm10.6 1.68c-2.43 4.38-7.68 5.48-8.05 2.04v-.06c-.04-.15-.05-.3-.05-.45 0-.24.04-.47.1-.68.54-2.9 3.96-4.98 3.96-4.98 2.6-2.07 4.27-5.25 4.27-8.83 0-4.88-3.13-9.04-7.48-10.6 0 0-4.23-1.14-10.32 1.46-.93.4-1.68.57-2.3.62-3.7.94-7.98 1.52-12.76 1.52-4.8 0-9.07-.58-12.76-1.52-.6-.05-1.36-.23-2.3-.62-6.1-2.6-10.3-1.46-10.3-1.46-4.37 1.56-7.5 5.72-7.5 10.6 0 3.6 1.67 6.77 4.27 8.84 0 0 3.42 2.07 3.96 4.98.06.2.1.44.1.67 0 .14 0 .3-.04.44v.02l-.02.03c-.37 3.43-5.62 2.33-8.05-2.05-6.54-7.58-10.5-17.44-10.5-28.2 0-23.83 19.35-43.2 43.14-43.2 23.78 0 43.14 19.37 43.14 43.2 0 10.76-3.96 20.62-10.5 28.2z"/><path fill="#221F1F" d="M37.86 83.4c0-2.28-1.84-4.12-4.1-4.12-2.28 0-4.13 1.84-4.13 4.12 0 2.28 1.85 4.12 4.12 4.12s4.1-1.84 4.1-4.12"/><path fill="#221F1F" d="M60.38 79.28c-2.27 0-4.1 1.84-4.1 4.12 0 2.28 1.83 4.12 4.1 4.12 2.27 0 4.12-1.84 4.12-4.12 0-2.28-1.85-4.12-4.12-4.12"/><path fill="#D9222A" d="M40.55 89.9c-1-.03-1.43.33-1.68.62-.78.86-.9 2.52-.88 3.66.07.07.15.14.24.2 0 0 .68.66 2.1 1.32-.15-1.32.5-2.05.4-2.6.2 1.68.8 2.3 1.2 3.2.36.1.74.23 1.15.3.45.1.95.2 1.48.25-.17-1.52-.98-6.8-4.03-6.95"/><path fill="#221F1F" d="M56.35 94.2l-.07.07-.12.1c-1.2 1-2.82 1.6-4.34 2l-.1.02c-.57.13-1.12.24-1.62.32-.24.04-.48.08-.73.1-1.03.14-1.73.16-1.73.16l.02-.02c-.05 0-.2.03-.6.02H47c-.1-1.17-.9-8.78-6.35-8.96-1.45-.06-2.68.43-3.55 1.4-1 1.12-1.37 2.16-1.47 3.48-.2.05-.43.12-.7.23-2 2.02 1.63 4.25 2.2 4.63 2.16 1.3 5.3 2.45 9.7 2.45.18 0 .36 0 .55 0 4.6-.1 7.85-1.27 10.08-2.6.46-.3 1.43-1.03 2.16-1.8.18-.24.35-.44.48-.6l.04-.05c.64-.85-.9-3.53-3.8-.94zM43.1 96.6c-.42-.07-.8-.2-1.16-.3-.4-.9-1.1-3.36-1.15-4.56-.45 1.63-.6 2.64-.46 3.96-1.42-.66-2.1-1.3-2.1-1.3-.1-.08-.17-.15-.25-.22-.04-1.14.06-2.15.83-3.02.25-.28.7-.64 1.7-.6 3.04.13 3.88 4.77 4.05 6.3-.53-.07-1.03-.16-1.5-.25z"/><path fill="#221F1F" d="M56.7 28.7c-.1-.7-.78-1.42-2.1-.28l-.06.03-.07.06c-.77.6-1.72.9-2.6 1.06h-.07c-.32.06-.63.1-.92.1-.14.02-.28.03-.42.03-.58 0-.97-.04-.97-.04l-.22-.02c-2.06-.23-3.37-1.1-4.2-1.94v-.02c-1.58-1.33-.6-2.18-2.26-1.7-.5.12-.68.38-.7.72-.88.8 1.03 3 1.28 3.27 1.1 1.1 2.8 2.18 5.3 2.53.1.02.2.03.32.04 2.64.3 4.62-.28 6.03-1.04.3-.2.92-.63 1.42-1.13.12-.15.24-.3.33-.4l.03-.02c.22-.27.18-.88-.13-1.26"/><path fill="#221F1F" d="M47.07 29.6s5.83-20.68 8.6-23.3c2.78-2.64 3.46.87 3.46.87s-8.58 22.3-9.28 22.87c-.7.57-2.78-.44-2.78-.44"/><path fill="#D3DC34" d="M66.37 8.4c-5.22 4.08-6.43 9.74-6.68 11.46.64.46 1.23 1.1 1.84 1.8 2.22 2.48 5.26 5.88 12.6 4.63 10.53-1.8 17.7-13.87 17.9-21.74-11.3-1.9-19.94-.6-25.67 3.85"/><path fill="#73B946" d="M74.14 26.3c8.44-1.45 14.7-9.48 16.97-16.66-10.83-1.67-19.16-.35-24.73 3.98-2.92 2.27-4.55 5.02-5.5 7.3.22.25.44.5.67.74 2.22 2.48 5.26 5.88 12.6 4.63"/><path fill="#3EAC47" d="M74.14 24.56c-7.34 1.24-10.38-2.16-12.6-4.64-.5-.57-1.02-1.1-1.55-1.53-.16.6-.26 1.12-.3 1.46.64.46 1.23 1.1 1.84 1.8 2.22 2.48 5.26 5.88 12.6 4.63 10.53-1.8 17.7-13.87 17.9-21.74l-.16-.02c-1.07 7.8-7.94 18.35-17.74 20.02"/><path fill="#221F1F" d="M95.45 2.95l-.1-1.32-1.3-.24C81-1.05 70.95.4 64.2 5.7c-6.47 5.06-7.75 11.97-7.98 13.93-2.66.8-6.32 2.64-6.8 2.88l1.57 3.1c1.84-.94 5.2-2.47 6.84-2.83.28.23.75.77 1.1 1.17 1.84 2.04 4.92 5.5 10.8 6 1.47.1 3.13.06 4.98-.26 12.55-2.13 21.6-16.38 20.73-26.75zM74.15 26.3c-7.35 1.24-10.4-2.16-12.6-4.64-.62-.7-1.2-1.34-1.86-1.8.24-1.72 1.45-7.38 6.67-11.45 5.73-4.44 14.36-5.73 25.67-3.84-.2 7.87-7.37 19.94-17.9 21.73z"/></g></g></svg>